<svg width="56" height="56" viewBox="0 0 56 56" fill="none" xmlns="http://www.w3.org/2000/svg">
<circle cx="28" cy="28" r="26.5" fill="#1F6D70" stroke="white" stroke-width="3"/>
<g clip-path="url(#clip0_80_1909)">
<path d="M39.6057 19.4168C39.301 19.0511 38.9195 18.7569 38.4883 18.5553C38.0571 18.3537 37.5868 18.2494 37.1108 18.25H19.5955L19.55 17.8698C19.4569 17.0794 19.077 16.3506 18.4824 15.8217C17.8877 15.2927 17.1197 15.0004 16.3238 15H16.0833C15.796 15 15.5205 15.1141 15.3173 15.3173C15.1141 15.5205 15 15.796 15 16.0833C15 16.3707 15.1141 16.6462 15.3173 16.8494C15.5205 17.0525 15.796 17.1667 16.0833 17.1667H16.3238C16.5892 17.1667 16.8453 17.2641 17.0436 17.4404C17.2419 17.6168 17.3685 17.8597 17.3996 18.1233L18.8902 30.7983C19.045 32.1164 19.6784 33.3319 20.6701 34.214C21.6618 35.0961 22.9428 35.5834 24.2701 35.5833H35.5833C35.8706 35.5833 36.1462 35.4692 36.3494 35.266C36.5525 35.0629 36.6667 34.7873 36.6667 34.5C36.6667 34.2127 36.5525 33.9371 36.3494 33.734C36.1462 33.5308 35.8706 33.4167 35.5833 33.4167H24.2701C23.5996 33.4148 22.946 33.2055 22.3991 32.8176C21.8522 32.4298 21.4386 31.8822 21.2151 31.25H34.1284C35.3984 31.2501 36.628 30.8039 37.6025 29.9895C38.5769 29.175 39.2342 28.0441 39.4595 26.7943L40.3099 22.0774C40.3948 21.6094 40.3757 21.1285 40.254 20.6687C40.1323 20.2089 39.911 19.7815 39.6057 19.4168Z" fill="white"/>
<path d="M22.5837 40.9998C23.7803 40.9998 24.7503 40.0298 24.7503 38.8332C24.7503 37.6366 23.7803 36.6665 22.5837 36.6665C21.387 36.6665 20.417 37.6366 20.417 38.8332C20.417 40.0298 21.387 40.9998 22.5837 40.9998Z" fill="white"/>
<path d="M33.4167 40.9998C34.6133 40.9998 35.5833 40.0298 35.5833 38.8332C35.5833 37.6366 34.6133 36.6665 33.4167 36.6665C32.22 36.6665 31.25 37.6366 31.25 38.8332C31.25 40.0298 32.22 40.9998 33.4167 40.9998Z" fill="white"/>
</g>
<defs>
<clipPath id="clip0_80_1909">
<rect width="26" height="26" fill="white" transform="translate(15 15)"/>
</clipPath>
</defs>
</svg>
