<svg width="56" height="56" viewBox="0 0 56 56" fill="none" xmlns="http://www.w3.org/2000/svg">
<circle cx="28" cy="28" r="26.5" fill="#1F6D70" stroke="white" stroke-width="3"/>
<path d="M18.0863 40.5125C18.6778 40.7653 19.3318 40.834 19.963 40.7095C20.5941 40.5851 21.1731 40.2733 21.6244 39.8148L27.9999 33.4741L34.3753 39.8148C34.6725 40.1164 35.0267 40.3561 35.4172 40.5199C35.8077 40.6837 36.2268 40.7685 36.6503 40.7692C37.0856 40.768 37.5163 40.6807 37.9178 40.5125C38.5142 40.2711 39.0239 39.8556 39.3805 39.32C39.737 38.7845 39.9239 38.1539 39.9165 37.5106V20.4167C39.9148 18.9806 39.3436 17.6039 38.3281 16.5884C37.3127 15.573 35.9359 15.0017 34.4999 15L21.4999 15C20.0638 15.0017 18.687 15.573 17.6716 16.5884C16.6562 17.6039 16.0849 18.9806 16.0832 20.4167V37.5106C16.0762 38.1544 16.2637 38.7854 16.621 39.321C16.9784 39.8565 17.4891 40.2718 18.0863 40.5125Z" fill="white"/>
</svg>
