<svg width="36" height="36" viewBox="0 0 36 36" fill="none" xmlns="http://www.w3.org/2000/svg">
<circle cx="18" cy="18" r="16.5" fill="#1F6D70" stroke="white" stroke-width="2"/>
<g clip-path="url(#clip0_301_645)">
<path d="M25.2536 12.6355C25.0631 12.4069 24.8247 12.2231 24.5552 12.0971C24.2857 11.971 23.9918 11.9059 23.6943 11.9062H12.7472L12.7187 11.6686C12.6606 11.1746 12.4231 10.7191 12.0515 10.3886C11.6798 10.058 11.1998 9.87523 10.7024 9.875H10.5521C10.3725 9.875 10.2003 9.94634 10.0733 10.0733C9.94634 10.2003 9.875 10.3725 9.875 10.5521C9.875 10.7317 9.94634 10.9039 10.0733 11.0309C10.2003 11.1578 10.3725 11.2292 10.5521 11.2292H10.7024C10.8682 11.2292 11.0283 11.2901 11.1522 11.4003C11.2762 11.5105 11.3553 11.6623 11.3747 11.827L12.3064 19.7489C12.4031 20.5728 12.799 21.3325 13.4188 21.8838C14.0386 22.4351 14.8393 22.7396 15.6688 22.7396H22.7396C22.9192 22.7396 23.0914 22.6682 23.2184 22.5413C23.3453 22.4143 23.4167 22.2421 23.4167 22.0625C23.4167 21.8829 23.3453 21.7107 23.2184 21.5837C23.0914 21.4568 22.9192 21.3854 22.7396 21.3854H15.6688C15.2497 21.3842 14.8413 21.2535 14.4994 21.011C14.1576 20.7686 13.8991 20.4264 13.7594 20.0312H21.8303C22.624 20.0313 23.3925 19.7524 24.0015 19.2434C24.6106 18.7344 25.0214 18.0276 25.1622 17.2464L25.6937 14.2984C25.7468 14.0059 25.7348 13.7053 25.6588 13.4179C25.5827 13.1306 25.4444 12.8634 25.2536 12.6355ZM24.3646 14.058L23.8324 17.006C23.7478 17.4753 23.5009 17.8998 23.1349 18.2053C22.7689 18.5108 22.307 18.6778 21.8303 18.6771H13.5441L12.907 13.2604H23.6943C23.7937 13.2598 23.8921 13.2811 23.9824 13.3229C24.0727 13.3646 24.1527 13.4257 24.2167 13.5019C24.2807 13.578 24.3271 13.6673 24.3526 13.7634C24.3782 13.8596 24.3823 13.9601 24.3646 14.058Z" fill="white"/>
<path d="M14.6146 26.1248C15.3625 26.1248 15.9687 25.5186 15.9687 24.7707C15.9687 24.0228 15.3625 23.4165 14.6146 23.4165C13.8667 23.4165 13.2604 24.0228 13.2604 24.7707C13.2604 25.5186 13.8667 26.1248 14.6146 26.1248Z" fill="white"/>
<path d="M21.3854 26.1248C22.1333 26.1248 22.7396 25.5186 22.7396 24.7707C22.7396 24.0228 22.1333 23.4165 21.3854 23.4165C20.6375 23.4165 20.0312 24.0228 20.0312 24.7707C20.0312 25.5186 20.6375 26.1248 21.3854 26.1248Z" fill="white"/>
</g>
<defs>
<clipPath id="clip0_301_645">
<rect width="16.25" height="16.25" fill="white" transform="translate(9.875 9.875)"/>
</clipPath>
</defs>
</svg>
