<svg width="88" height="88" viewBox="0 0 88 88" fill="none" xmlns="http://www.w3.org/2000/svg">
<g filter="url(#filter0_d_202_2487)">
<circle cx="44" cy="40" r="40" fill="#1F6D70"/>
<path d="M60.6667 17H27.3333C25.1232 17 23.0036 17.8077 21.4408 19.2455C19.878 20.6833 19 22.6334 19 24.6668V47.6671C19 49.7005 19.878 51.6505 21.4408 53.0883C23.0036 54.5261 25.1232 55.3339 27.3333 55.3339H33.375L42.6479 62.5464C43.0241 62.8393 43.5009 63 43.9937 63C44.4866 63 44.9634 62.8393 45.3396 62.5464L54.625 55.3339H60.6667C62.8768 55.3339 64.9964 54.5261 66.5592 53.0883C68.122 51.6505 69 49.7005 69 47.6671V24.6668C69 22.6334 68.122 20.6833 66.5592 19.2455C64.9964 17.8077 62.8768 17 60.6667 17V17ZM64.8333 47.6671C64.8333 48.6838 64.3943 49.6588 63.6129 50.3777C62.8315 51.0966 61.7717 51.5005 60.6667 51.5005H54.625C53.6402 51.5008 52.6873 51.822 51.9354 52.4071L44 58.5731L36.0687 52.4071C35.3158 51.8211 34.3612 51.4999 33.375 51.5005H27.3333C26.2283 51.5005 25.1685 51.0966 24.3871 50.3777C23.6057 49.6588 23.1667 48.6838 23.1667 47.6671V24.6668C23.1667 23.6501 23.6057 22.6751 24.3871 21.9562C25.1685 21.2373 26.2283 20.8334 27.3333 20.8334H60.6667C61.7717 20.8334 62.8315 21.2373 63.6129 21.9562C64.3943 22.6751 64.8333 23.6501 64.8333 24.6668V47.6671Z" fill="white"/>
<path d="M33.0436 30.2539H43.9395C44.5175 30.2539 45.0718 30.0485 45.4805 29.6829C45.8891 29.3174 46.1187 28.8216 46.1187 28.3047C46.1187 27.7877 45.8891 27.2919 45.4805 26.9264C45.0718 26.5608 44.5175 26.3555 43.9395 26.3555H33.0436C32.4656 26.3555 31.9113 26.5608 31.5027 26.9264C31.094 27.2919 30.8644 27.7877 30.8644 28.3047C30.8644 28.8216 31.094 29.3174 31.5027 29.6829C31.9113 30.0485 32.4656 30.2539 33.0436 30.2539Z" fill="white"/>
<path d="M54.1695 34.1523H32.983C32.4211 34.1523 31.8822 34.3577 31.4849 34.7232C31.0876 35.0888 30.8644 35.5845 30.8644 36.1015C30.8644 36.6184 31.0876 37.1142 31.4849 37.4797C31.8822 37.8453 32.4211 38.0506 32.983 38.0506H54.1695C54.7314 38.0506 55.2703 37.8453 55.6676 37.4797C56.0649 37.1142 56.2882 36.6184 56.2882 36.1015C56.2882 35.5845 56.0649 35.0888 55.6676 34.7232C55.2703 34.3577 54.7314 34.1523 54.1695 34.1523Z" fill="white"/>
<path d="M54.1695 41.9492H32.983C32.4211 41.9492 31.8822 42.1546 31.4849 42.5201C31.0876 42.8856 30.8644 43.3814 30.8644 43.8984C30.8644 44.4153 31.0876 44.9111 31.4849 45.2766C31.8822 45.6421 32.4211 45.8475 32.983 45.8475H54.1695C54.7314 45.8475 55.2703 45.6421 55.6676 45.2766C56.0649 44.9111 56.2882 44.4153 56.2882 43.8984C56.2882 43.3814 56.0649 42.8856 55.6676 42.5201C55.2703 42.1546 54.7314 41.9492 54.1695 41.9492Z" fill="white"/>
</g>
<defs>
<filter id="filter0_d_202_2487" x="0" y="0" width="88" height="88" filterUnits="userSpaceOnUse" color-interpolation-filters="sRGB">
<feFlood flood-opacity="0" result="BackgroundImageFix"/>
<feColorMatrix in="SourceAlpha" type="matrix" values="0 0 0 0 0 0 0 0 0 0 0 0 0 0 0 0 0 0 127 0" result="hardAlpha"/>
<feOffset dy="4"/>
<feGaussianBlur stdDeviation="2"/>
<feComposite in2="hardAlpha" operator="out"/>
<feColorMatrix type="matrix" values="0 0 0 0 0 0 0 0 0 0 0 0 0 0 0 0 0 0 0.25 0"/>
<feBlend mode="normal" in2="BackgroundImageFix" result="effect1_dropShadow_202_2487"/>
<feBlend mode="normal" in="SourceGraphic" in2="effect1_dropShadow_202_2487" result="shape"/>
</filter>
</defs>
</svg>
