<svg width="26" height="26" viewBox="0 0 26 26" fill="none" xmlns="http://www.w3.org/2000/svg">
<g clip-path="url(#clip0_301_287)">
<path d="M21.6667 0H4.33333C3.18406 0 2.08186 0.456546 1.2692 1.2692C0.456546 2.08186 0 3.18406 0 4.33333L0 17.3333C0 18.4826 0.456546 19.5848 1.2692 20.3975C2.08186 21.2101 3.18406 21.6667 4.33333 21.6667H7.475L12.2969 25.7433C12.4925 25.9088 12.7405 25.9996 12.9967 25.9996C13.253 25.9996 13.501 25.9088 13.6966 25.7433L18.525 21.6667H21.6667C22.8159 21.6667 23.9181 21.2101 24.7308 20.3975C25.5435 19.5848 26 18.4826 26 17.3333V4.33333C26 3.18406 25.5435 2.08186 24.7308 1.2692C23.9181 0.456546 22.8159 0 21.6667 0V0ZM23.8333 17.3333C23.8333 17.908 23.6051 18.4591 23.1987 18.8654C22.7924 19.2717 22.2413 19.5 21.6667 19.5H18.525C18.0129 19.5002 17.5174 19.6817 17.1264 20.0124L13 23.4975L8.87575 20.0124C8.48419 19.6812 7.98785 19.4996 7.475 19.5H4.33333C3.7587 19.5 3.2076 19.2717 2.80127 18.8654C2.39494 18.4591 2.16667 17.908 2.16667 17.3333V4.33333C2.16667 3.7587 2.39494 3.2076 2.80127 2.80127C3.2076 2.39494 3.7587 2.16667 4.33333 2.16667H21.6667C22.2413 2.16667 22.7924 2.39494 23.1987 2.80127C23.6051 3.2076 23.8333 3.7587 23.8333 4.33333V17.3333Z" fill="white"/>
<path d="M7.58333 7.58317H13C13.2873 7.58317 13.5629 7.46903 13.766 7.26587C13.9692 7.0627 14.0833 6.78716 14.0833 6.49984C14.0833 6.21252 13.9692 5.93697 13.766 5.73381C13.5629 5.53064 13.2873 5.4165 13 5.4165H7.58333C7.29602 5.4165 7.02047 5.53064 6.8173 5.73381C6.61414 5.93697 6.5 6.21252 6.5 6.49984C6.5 6.78716 6.61414 7.0627 6.8173 7.26587C7.02047 7.46903 7.29602 7.58317 7.58333 7.58317Z" fill="white"/>
<path d="M18.4167 9.75H7.58333C7.29602 9.75 7.02047 9.86414 6.8173 10.0673C6.61414 10.2705 6.5 10.546 6.5 10.8333C6.5 11.1207 6.61414 11.3962 6.8173 11.5994C7.02047 11.8025 7.29602 11.9167 7.58333 11.9167H18.4167C18.704 11.9167 18.9795 11.8025 19.1827 11.5994C19.3859 11.3962 19.5 11.1207 19.5 10.8333C19.5 10.546 19.3859 10.2705 19.1827 10.0673C18.9795 9.86414 18.704 9.75 18.4167 9.75Z" fill="white"/>
<path d="M18.4167 14.0835H7.58333C7.29602 14.0835 7.02047 14.1976 6.8173 14.4008C6.61414 14.604 6.5 14.8795 6.5 15.1668C6.5 15.4541 6.61414 15.7297 6.8173 15.9329C7.02047 16.136 7.29602 16.2502 7.58333 16.2502H18.4167C18.704 16.2502 18.9795 16.136 19.1827 15.9329C19.3859 15.7297 19.5 15.4541 19.5 15.1668C19.5 14.8795 19.3859 14.604 19.1827 14.4008C18.9795 14.1976 18.704 14.0835 18.4167 14.0835Z" fill="white"/>
</g>
<defs>
<clipPath id="clip0_301_287">
<rect width="26" height="26" fill="white"/>
</clipPath>
</defs>
</svg>
