<svg width="36" height="36" viewBox="0 0 36 36" fill="none" xmlns="http://www.w3.org/2000/svg">
<circle cx="18" cy="18" r="16.5" fill="#1F6D70" stroke="white" stroke-width="2"/>
<path d="M23.4574 26.125C23.207 26.1243 22.9591 26.074 22.7282 25.9769C22.4973 25.8799 22.2878 25.7381 22.1121 25.5596L17.948 21.4199L13.7839 25.5623C13.5165 25.8337 13.1735 26.0181 12.7997 26.0917C12.4259 26.1652 12.0387 26.1245 11.6884 25.9747C11.3346 25.8324 11.032 25.5867 10.82 25.2698C10.608 24.9528 10.4965 24.5793 10.5001 24.198V13.2604C10.5001 12.3625 10.8568 11.5015 11.4916 10.8666C12.1265 10.2317 12.9876 9.875 13.8855 9.875H22.0105C22.4551 9.875 22.8953 9.96257 23.306 10.1327C23.7168 10.3028 24.09 10.5522 24.4044 10.8666C24.7187 11.1809 24.9681 11.5541 25.1382 11.9649C25.3084 12.3756 25.3959 12.8158 25.3959 13.2604V24.198C25.3997 24.579 25.2886 24.9523 25.0771 25.2692C24.8657 25.5861 24.5636 25.832 24.2103 25.9747C23.9719 26.0744 23.7159 26.1255 23.4574 26.125ZM13.8855 11.2292C13.3468 11.2292 12.8301 11.4432 12.4492 11.8241C12.0683 12.205 11.8543 12.7217 11.8543 13.2604V24.198C11.854 24.3108 11.8872 24.4212 11.9497 24.5152C12.0121 24.6091 12.101 24.6825 12.2051 24.726C12.3092 24.7694 12.4239 24.7811 12.5346 24.7594C12.6453 24.7378 12.7472 24.6838 12.8272 24.6043L17.474 19.9859C17.6009 19.8598 17.7725 19.789 17.9514 19.789C18.1303 19.789 18.3019 19.8598 18.4287 19.9859L23.0701 24.6029C23.1502 24.6824 23.252 24.7364 23.3627 24.7581C23.4735 24.7797 23.5881 24.7681 23.6923 24.7246C23.7964 24.6811 23.8853 24.6078 23.9477 24.5138C24.0102 24.4199 24.0434 24.3095 24.0431 24.1967V13.2604C24.0431 12.7217 23.8291 12.205 23.4482 11.8241C23.0672 11.4432 22.5506 11.2292 22.0119 11.2292H13.8855Z" fill="white"/>
</svg>
