<svg width="26" height="30" viewBox="0 0 26 30" fill="none" xmlns="http://www.w3.org/2000/svg">
<path d="M22.6163 29.9957C22.1791 29.9944 21.7465 29.9015 21.3435 29.7224C20.9404 29.5433 20.5749 29.2814 20.2681 28.9521L13 21.3107L5.7319 28.9571C5.26512 29.4579 4.66649 29.7984 4.01405 29.9342C3.3616 30.0699 2.68562 29.9947 2.07421 29.7182C1.45674 29.4555 0.928507 29.0021 0.558499 28.417C0.188491 27.832 -0.00609723 27.1425 0.000145641 26.4387V6.24909C0.000145641 4.59173 0.622701 3.00225 1.73086 1.83032C2.83901 0.658385 4.342 0 5.90917 0L20.0908 0C20.8668 0 21.6352 0.161638 22.3521 0.475684C23.069 0.78973 23.7204 1.25004 24.2691 1.83032C24.8178 2.4106 25.2531 3.09949 25.55 3.85767C25.847 4.61584 25.9998 5.42845 25.9998 6.24909V26.4387C26.0065 27.1419 25.8126 27.831 25.4434 28.416C25.0743 29.0009 24.5471 29.4548 23.9305 29.7182C23.5143 29.9023 23.0675 29.9966 22.6163 29.9957ZM5.90917 2.49964C4.96886 2.49964 4.06708 2.89467 3.40218 3.59783C2.73729 4.30099 2.36375 5.25468 2.36375 6.24909V26.4387C2.36333 26.6469 2.42127 26.8507 2.53027 27.0241C2.63927 27.1976 2.79443 27.333 2.97615 27.4132C3.15788 27.4934 3.35801 27.5149 3.55128 27.475C3.74454 27.435 3.92227 27.3353 4.06201 27.1886L12.1727 18.6635C12.3942 18.4308 12.6937 18.3001 13.0059 18.3001C13.3181 18.3001 13.6176 18.4308 13.8391 18.6635L21.9403 27.1861C22.0801 27.3328 22.2578 27.4325 22.4511 27.4725C22.6443 27.5124 22.8445 27.4909 23.0262 27.4107C23.2079 27.3305 23.3631 27.1951 23.4721 27.0216C23.5811 26.8482 23.639 26.6444 23.6386 26.4362V6.24909C23.6386 5.25468 23.2651 4.30099 22.6002 3.59783C21.9353 2.89467 21.0335 2.49964 20.0932 2.49964H5.90917Z" fill="#1F6D70"/>
</svg>
