<svg width="26" height="26" viewBox="0 0 26 26" fill="none" xmlns="http://www.w3.org/2000/svg">
<g clip-path="url(#clip0_301_280)">
<path d="M13 6.5C12.1429 6.5 11.3051 6.75415 10.5925 7.2303C9.87988 7.70645 9.32446 8.38322 8.99648 9.17504C8.6685 9.96685 8.58269 10.8381 8.74989 11.6787C8.91709 12.5193 9.3298 13.2914 9.93583 13.8975C10.5419 14.5035 11.314 14.9162 12.1546 15.0834C12.9952 15.2506 13.8664 15.1648 14.6583 14.8368C15.4501 14.5088 16.1268 13.9534 16.603 13.2408C17.0792 12.5282 17.3333 11.6904 17.3333 10.8333C17.3333 9.68406 16.8768 8.58186 16.0641 7.7692C15.2514 6.95655 14.1492 6.5 13 6.5ZM13 13C12.5714 13 12.1525 12.8729 11.7962 12.6349C11.4399 12.3968 11.1622 12.0584 10.9982 11.6625C10.8342 11.2666 10.7913 10.8309 10.8749 10.4106C10.9585 9.99035 11.1649 9.60428 11.4679 9.30127C11.7709 8.99826 12.157 8.7919 12.5773 8.7083C12.9976 8.6247 13.4332 8.6676 13.8291 8.83159C14.225 8.99558 14.5634 9.27329 14.8015 9.6296C15.0396 9.9859 15.1666 10.4048 15.1666 10.8333C15.1666 11.408 14.9384 11.9591 14.532 12.3654C14.1257 12.7717 13.5746 13 13 13Z" fill="white"/>
<path d="M13 26.0002C12.0877 26.0049 11.1877 25.7909 10.3751 25.3763C9.56258 24.9616 8.8612 24.3583 8.32972 23.6169C4.20114 17.9218 2.10706 13.6405 2.10706 10.891C2.10706 8.00198 3.2547 5.23133 5.29752 3.18851C7.34034 1.14569 10.111 -0.00195312 13 -0.00195312C15.889 -0.00195312 18.6596 1.14569 20.7024 3.18851C22.7453 5.23133 23.8929 8.00198 23.8929 10.891C23.8929 13.6405 21.7988 17.9218 17.6702 23.6169C17.1387 24.3583 16.4374 24.9616 15.6248 25.3763C14.8123 25.7909 13.9122 26.0049 13 26.0002ZM13 2.36296C10.7384 2.36554 8.57024 3.26508 6.97109 4.86424C5.37193 6.4634 4.47239 8.63158 4.46981 10.8931C4.46981 13.0706 6.52056 17.0974 10.2429 22.2313C10.5589 22.6666 10.9735 23.0208 11.4527 23.2651C11.9319 23.5094 12.4621 23.6367 13 23.6367C13.5378 23.6367 14.0681 23.5094 14.5473 23.2651C15.0265 23.0208 15.4411 22.6666 15.7571 22.2313C19.4794 17.0974 21.5301 13.0706 21.5301 10.8931C21.5276 8.63158 20.628 6.4634 19.0289 4.86424C17.4297 3.26508 15.2615 2.36554 13 2.36296Z" fill="white"/>
</g>
<defs>
<clipPath id="clip0_301_280">
<rect width="26" height="26" fill="white"/>
</clipPath>
</defs>
</svg>
