<svg width="36" height="36" viewBox="0 0 36 36" fill="none" xmlns="http://www.w3.org/2000/svg">
<circle cx="18" cy="18" r="16.5" fill="#1F6D70" stroke="white" stroke-width="2"/>
<path d="M17.8438 18C18.6472 18 19.4327 17.7617 20.1008 17.3153C20.7688 16.869 21.2895 16.2345 21.597 15.4922C21.9045 14.7498 21.9849 13.933 21.8282 13.1449C21.6714 12.3569 21.2845 11.633 20.7164 11.0649C20.1482 10.4967 19.4244 10.1098 18.6363 9.95306C17.8483 9.79631 17.0314 9.87676 16.2891 10.1842C15.5468 10.4917 14.9123 11.0124 14.4659 11.6805C14.0195 12.3486 13.7812 13.134 13.7812 13.9375C13.7823 15.0146 14.2107 16.0473 14.9723 16.8089C15.734 17.5706 16.7666 17.9989 17.8438 18ZM17.8438 11.2292C18.3794 11.2292 18.903 11.388 19.3484 11.6856C19.7938 11.9832 20.1409 12.4062 20.3459 12.9011C20.5509 13.3959 20.6045 13.9405 20.5 14.4659C20.3955 14.9912 20.1376 15.4738 19.7588 15.8526C19.3801 16.2313 18.8975 16.4893 18.3721 16.5938C17.8468 16.6983 17.3022 16.6447 16.8073 16.4397C16.3124 16.2347 15.8894 15.8876 15.5919 15.4422C15.2943 14.9968 15.1354 14.4732 15.1354 13.9375C15.1354 13.2192 15.4208 12.5303 15.9287 12.0224C16.4366 11.5145 17.1255 11.2292 17.8438 11.2292Z" fill="white"/>
<path d="M17.8438 19.3545C16.2282 19.3563 14.6792 19.9989 13.5368 21.1413C12.3944 22.2837 11.7518 23.8326 11.75 25.4482C11.75 25.6278 11.8214 25.8 11.9483 25.927C12.0753 26.054 12.2475 26.1253 12.4271 26.1253C12.6067 26.1253 12.7789 26.054 12.9059 25.927C13.0329 25.8 13.1042 25.6278 13.1042 25.4482C13.1042 24.1912 13.6035 22.9857 14.4924 22.0969C15.3812 21.208 16.5868 20.7087 17.8438 20.7087C19.1008 20.7087 20.3063 21.208 21.1952 22.0969C22.084 22.9857 22.5834 24.1912 22.5834 25.4482C22.5834 25.6278 22.6547 25.8 22.7817 25.927C22.9087 26.054 23.0809 26.1253 23.2604 26.1253C23.44 26.1253 23.6122 26.054 23.7392 25.927C23.8662 25.8 23.9375 25.6278 23.9375 25.4482C23.9357 23.8326 23.2931 22.2837 22.1507 21.1413C21.0083 19.9989 19.4594 19.3563 17.8438 19.3545Z" fill="white"/>
</svg>
