<svg width="26" height="26" viewBox="0 0 26 26" fill="none" xmlns="http://www.w3.org/2000/svg">
<path d="M20.2691 8.89418C20.1684 8.79264 20.0486 8.71205 19.9166 8.65705C19.7846 8.60205 19.643 8.57373 19.5 8.57373C19.357 8.57373 19.2154 8.60205 19.0833 8.65705C18.9513 8.71205 18.8315 8.79264 18.7308 8.89418L13.7691 13.8558C13.6684 13.9574 13.5486 14.038 13.4166 14.093C13.2846 14.148 13.143 14.1763 13 14.1763C12.857 14.1763 12.7154 14.148 12.5833 14.093C12.4513 14.038 12.3315 13.9574 12.2308 13.8558L7.26913 8.89418C7.16842 8.79264 7.0486 8.71205 6.91659 8.65705C6.78457 8.60205 6.64298 8.57373 6.49996 8.57373C6.35695 8.57373 6.21535 8.60205 6.08334 8.65705C5.95132 8.71205 5.83151 8.79264 5.7308 8.89418C5.52902 9.09715 5.41577 9.37173 5.41577 9.65793C5.41577 9.94413 5.52902 10.2187 5.7308 10.4217L10.7033 15.3942C11.3127 16.0028 12.1387 16.3447 13 16.3447C13.8612 16.3447 14.6873 16.0028 15.2966 15.3942L20.2691 10.4217C20.4709 10.2187 20.5842 9.94413 20.5842 9.65793C20.5842 9.37173 20.4709 9.09715 20.2691 8.89418Z" fill="white"/>
</svg>
