<svg width="68" height="68" viewBox="0 0 68 68" fill="none" xmlns="http://www.w3.org/2000/svg">
<g filter="url(#filter0_d_202_2482)">
<circle cx="34" cy="30" r="30" fill="#1F6D70" fill-opacity="0.5"/>
<path d="M49 36.6713C49.0009 36.8452 48.9694 37.0175 48.9072 37.1785C48.845 37.3394 48.7534 37.4858 48.6375 37.6092C48.5214 37.7331 48.3831 37.8313 48.2308 37.8984C48.0785 37.9655 47.9152 38 47.7502 38C47.5852 38 47.4219 37.9655 47.2696 37.8984C47.1173 37.8313 46.979 37.7331 46.8628 37.6092L36.6521 26.8164C35.9491 26.0742 34.9961 25.6574 34.0025 25.6574C33.009 25.6574 32.056 26.0742 31.353 26.8164L21.1422 37.6092C20.9069 37.858 20.5877 37.9977 20.2549 37.9977C19.9221 37.9977 19.6029 37.858 19.3676 37.6092C19.1322 37.3605 19 37.0231 19 36.6713C19 36.3195 19.1322 35.9821 19.3676 35.7334L29.5783 24.9405C30.1588 24.3254 30.8484 23.8374 31.6075 23.5044C32.3667 23.1714 33.1806 23 34.0025 23C34.8245 23 35.6384 23.1714 36.3976 23.5044C37.1567 23.8374 37.8463 24.3254 38.4268 24.9405L48.6375 35.7334C48.7534 35.8568 48.845 36.0032 48.9072 36.1642C48.9694 36.3251 49.0009 36.4974 49 36.6713Z" fill="white" fill-opacity="0.78"/>
</g>
<defs>
<filter id="filter0_d_202_2482" x="0" y="0" width="68" height="68" filterUnits="userSpaceOnUse" color-interpolation-filters="sRGB">
<feFlood flood-opacity="0" result="BackgroundImageFix"/>
<feColorMatrix in="SourceAlpha" type="matrix" values="0 0 0 0 0 0 0 0 0 0 0 0 0 0 0 0 0 0 127 0" result="hardAlpha"/>
<feOffset dy="4"/>
<feGaussianBlur stdDeviation="2"/>
<feComposite in2="hardAlpha" operator="out"/>
<feColorMatrix type="matrix" values="0 0 0 0 0 0 0 0 0 0 0 0 0 0 0 0 0 0 0.25 0"/>
<feBlend mode="normal" in2="BackgroundImageFix" result="effect1_dropShadow_202_2482"/>
<feBlend mode="normal" in="SourceGraphic" in2="effect1_dropShadow_202_2482" result="shape"/>
</filter>
</defs>
</svg>
