<svg width="26" height="26" viewBox="0 0 26 26" fill="none" xmlns="http://www.w3.org/2000/svg">
<g clip-path="url(#clip0_301_294)">
<path d="M13 0C10.4288 0 7.91543 0.762437 5.77759 2.19089C3.63975 3.61935 1.97351 5.64967 0.989572 8.02511C0.00563272 10.4006 -0.251811 13.0144 0.249797 15.5362C0.751405 18.0579 1.98954 20.3743 3.80762 22.1924C5.6257 24.0105 7.94208 25.2486 10.4638 25.7502C12.9856 26.2518 15.5995 25.9944 17.9749 25.0104C20.3503 24.0265 22.3807 22.3602 23.8091 20.2224C25.2376 18.0846 26 15.5712 26 13C25.9963 9.55333 24.6254 6.24889 22.1883 3.81173C19.7511 1.37456 16.4467 0.00372784 13 0V0ZM13 23.8333C10.8574 23.8333 8.76286 23.198 6.98133 22.0076C5.1998 20.8172 3.81126 19.1253 2.99131 17.1457C2.17136 15.1662 1.95683 12.988 2.37483 10.8865C2.79284 8.78506 3.82461 6.85474 5.33968 5.33968C6.85475 3.82461 8.78507 2.79283 10.8865 2.37483C12.988 1.95682 15.1662 2.17136 17.1457 2.9913C19.1253 3.81125 20.8172 5.19979 22.0076 6.98132C23.198 8.76285 23.8333 10.8574 23.8333 13C23.8302 15.8722 22.6878 18.6259 20.6568 20.6568C18.6259 22.6878 15.8722 23.8302 13 23.8333Z" fill="white"/>
<path d="M13.7767 5.48474C13.152 5.37091 12.5099 5.39578 11.8959 5.55758C11.2818 5.71938 10.7108 6.01416 10.2233 6.42106C9.73578 6.82797 9.34365 7.33704 9.07465 7.91227C8.80566 8.48749 8.66637 9.1148 8.66666 9.74982C8.66666 10.0371 8.78079 10.3127 8.98396 10.5158C9.18712 10.719 9.46267 10.8331 9.74999 10.8331C10.0373 10.8331 10.3129 10.719 10.516 10.5158C10.7192 10.3127 10.8333 10.0371 10.8333 9.74982C10.8331 9.43107 10.9031 9.1162 11.0385 8.82764C11.1739 8.53908 11.3713 8.28395 11.6166 8.08043C11.8619 7.87692 12.1491 7.73004 12.4577 7.65026C12.7663 7.57048 13.0887 7.55977 13.4019 7.6189C13.8299 7.70198 14.2234 7.91073 14.5321 8.21851C14.8408 8.52629 15.0508 8.91912 15.1353 9.34682C15.2205 9.79575 15.1616 10.2601 14.9671 10.6736C14.7725 11.0871 14.4522 11.4284 14.0519 11.6489C13.3891 12.0329 12.8414 12.5876 12.4658 13.2553C12.0903 13.9229 11.9006 14.679 11.9167 15.4449V16.2498C11.9167 16.5371 12.0308 16.8127 12.234 17.0158C12.4371 17.219 12.7127 17.3331 13 17.3331C13.2873 17.3331 13.5629 17.219 13.766 17.0158C13.9692 16.8127 14.0833 16.5371 14.0833 16.2498V15.4449C14.0697 15.0679 14.1557 14.694 14.3326 14.3608C14.5094 14.0276 14.771 13.7469 15.0908 13.5469C15.8757 13.1158 16.5078 12.4521 16.9001 11.6472C17.2924 10.8422 17.4257 9.93545 17.2816 9.05164C17.1376 8.16782 16.7233 7.35033 16.0956 6.7116C15.468 6.07287 14.6579 5.64427 13.7767 5.48474Z" fill="white"/>
<path d="M14.0833 19.4998C14.0833 18.9015 13.5983 18.4165 13 18.4165C12.4017 18.4165 11.9167 18.9015 11.9167 19.4998C11.9167 20.0981 12.4017 20.5832 13 20.5832C13.5983 20.5832 14.0833 20.0981 14.0833 19.4998Z" fill="white"/>
</g>
<defs>
<clipPath id="clip0_301_294">
<rect width="26" height="26" fill="white"/>
</clipPath>
</defs>
</svg>
