<svg width="26" height="30" viewBox="0 0 26 30" fill="none" xmlns="http://www.w3.org/2000/svg">
    <g clip-path="url(#clip0_134_2353)">
        <path d="M21.8151 30C21.4144 29.9987 21.0178 29.9058 20.6483 29.7267C20.2789 29.5475 19.9438 29.2857 19.6626 28.9562L13.0001 21.3137L6.33755 28.9612C5.90967 29.4622 5.36092 29.8027 4.76284 29.9385C4.16476 30.0743 3.5451 29.999 2.98464 29.7225C2.41861 29.4598 1.93439 29.0063 1.59522 28.4211C1.25604 27.836 1.07766 27.1464 1.08339 26.4425V6.25C1.08339 4.5924 1.65407 3.00268 2.66989 1.83058C3.68571 0.65848 5.06346 0 6.50005 0L19.5001 0C20.2114 0 20.9157 0.161661 21.5729 0.475753C22.2301 0.789845 22.8272 1.25022 23.3302 1.83058C23.8332 2.41095 24.2322 3.09994 24.5044 3.85823C24.7766 4.61651 24.9167 5.42924 24.9167 6.25V26.4425C24.9228 27.1458 24.7451 27.835 24.4067 28.4201C24.0683 29.0051 23.585 29.459 23.0198 29.7225C22.6383 29.9066 22.2287 30.001 21.8151 30ZM6.50005 2.5C5.6381 2.5 4.81145 2.89509 4.20196 3.59835C3.59246 4.30161 3.25005 5.25544 3.25005 6.25V26.4425C3.24966 26.6508 3.30278 26.8545 3.4027 27.028C3.50261 27.2015 3.64484 27.3369 3.81143 27.4172C3.97801 27.4974 4.16147 27.5189 4.33863 27.4789C4.51579 27.4389 4.67871 27.3393 4.8068 27.1925L12.2417 18.6662C12.4447 18.4334 12.7193 18.3028 13.0055 18.3028C13.2917 18.3028 13.5662 18.4334 13.7692 18.6662L21.1955 27.19C21.3236 27.3368 21.4865 27.4364 21.6637 27.4764C21.8408 27.5164 22.0243 27.4949 22.1909 27.4147C22.3574 27.3344 22.4997 27.199 22.5996 27.0255C22.6995 26.852 22.7526 26.6483 22.7522 26.44V6.25C22.7522 5.25544 22.4098 4.30161 21.8003 3.59835C21.1908 2.89509 20.3642 2.5 19.5022 2.5H6.50005Z" fill="white"/>
    </g>
    <defs>
        <clipPath id="clip0_134_2353">
            <rect width="26" height="30" fill="white"/>
        </clipPath>
    </defs>
</svg>
