<svg width="80" height="80" viewBox="0 0 80 80" fill="none" xmlns="http://www.w3.org/2000/svg">
<g clip-path="url(#clip0_2_571)">
<path d="M41.5969 47.55V36.62H78.4269C78.7869 38.5233 78.9735 40.7767 78.9735 43.2167C78.9735 51.4167 76.7335 61.5567 69.5069 68.78C62.4802 76.0967 53.5035 80 41.6102 80C19.5635 80 1.02686 62.0433 1.02686 40C1.02686 17.9567 19.5635 0 41.6102 0C53.8069 0 62.4935 4.78667 69.0202 11.0233L61.3069 18.7333C56.6269 14.3433 50.2835 10.93 41.5969 10.93C25.5002 10.93 12.9102 23.9033 12.9102 40C12.9102 56.0967 25.5002 69.07 41.5969 69.07C52.0369 69.07 57.9835 64.8767 61.7935 61.0667C64.8835 57.9767 66.9169 53.5633 67.7169 47.5367L41.5969 47.55Z" fill="#023739"/>
</g>
<defs>
<clipPath id="clip0_2_571">
<rect width="80" height="80" fill="white"/>
</clipPath>
</defs>
</svg>
