<svg width="30" height="30" viewBox="0 0 30 30" fill="none" xmlns="http://www.w3.org/2000/svg">
    <g clip-path="url(#clip0_134_2344)">
        <path d="M10 8.75H28.125C28.6223 8.75 29.0992 8.55246 29.4508 8.20083C29.8025 7.8492 30 7.37228 30 6.875C30 6.37772 29.8025 5.90081 29.4508 5.54917C29.0992 5.19754 28.6223 5 28.125 5H10C9.50272 5 9.02581 5.19754 8.67417 5.54917C8.32254 5.90081 8.125 6.37772 8.125 6.875C8.125 7.37228 8.32254 7.8492 8.67417 8.20083C9.02581 8.55246 9.50272 8.75 10 8.75Z" fill="white"/>
        <path d="M28.125 13.75H10C9.50272 13.75 9.02581 13.9475 8.67417 14.2992C8.32254 14.6508 8.125 15.1277 8.125 15.625C8.125 16.1223 8.32254 16.5992 8.67417 16.9508C9.02581 17.3025 9.50272 17.5 10 17.5H28.125C28.6223 17.5 29.0992 17.3025 29.4508 16.9508C29.8025 16.5992 30 16.1223 30 15.625C30 15.1277 29.8025 14.6508 29.4508 14.2992C29.0992 13.9475 28.6223 13.75 28.125 13.75Z" fill="white"/>
        <path d="M28.125 22.5H10C9.50272 22.5 9.02581 22.6975 8.67417 23.0492C8.32254 23.4008 8.125 23.8777 8.125 24.375C8.125 24.8723 8.32254 25.3492 8.67417 25.7008C9.02581 26.0525 9.50272 26.25 10 26.25H28.125C28.6223 26.25 29.0992 26.0525 29.4508 25.7008C29.8025 25.3492 30 24.8723 30 24.375C30 23.8777 29.8025 23.4008 29.4508 23.0492C29.0992 22.6975 28.6223 22.5 28.125 22.5Z" fill="white"/>
        <path d="M3.125 10C4.85089 10 6.25 8.60089 6.25 6.875C6.25 5.14911 4.85089 3.75 3.125 3.75C1.39911 3.75 0 5.14911 0 6.875C0 8.60089 1.39911 10 3.125 10Z" fill="white"/>
        <path d="M3.125 18.125C4.85089 18.125 6.25 16.7259 6.25 15C6.25 13.2741 4.85089 11.875 3.125 11.875C1.39911 11.875 0 13.2741 0 15C0 16.7259 1.39911 18.125 3.125 18.125Z" fill="white"/>
        <path d="M3.125 26.875C4.85089 26.875 6.25 25.4759 6.25 23.75C6.25 22.0241 4.85089 20.625 3.125 20.625C1.39911 20.625 0 22.0241 0 23.75C0 25.4759 1.39911 26.875 3.125 26.875Z" fill="white"/>
    </g>
    <defs>
        <clipPath id="clip0_134_2344">
            <rect width="30" height="30" fill="white"/>
        </clipPath>
    </defs>
</svg>
