<svg width="30" height="30" viewBox="0 0 30 30" fill="none" xmlns="http://www.w3.org/2000/svg">
    <path d="M9.99996 26.25H4.26123C3.97916 26.2493 3.75064 26.0208 3.75 25.7388V4.26123C3.7507 3.97916 3.97916 3.75064 4.26123 3.75H9.99996C11.0355 3.75 11.875 2.91053 11.875 1.875C11.875 0.839473 11.0355 0 9.99996 0H4.26123C1.90893 0.00275391 0.00275391 1.90898 0 4.26123V25.7387C0.00275391 28.091 1.90893 29.9972 4.26123 30H9.99996C11.0355 30 11.875 29.1605 11.875 28.125C11.875 27.0895 11.0355 26.25 9.99996 26.25Z" fill="white"/>
    <path d="M28.3525 11.0225L23.5 6.17378C22.7675 5.44166 21.5802 5.44195 20.8481 6.17443C20.116 6.90691 20.1163 8.09419 20.8488 8.82632L25.1137 13.0901L8.125 13.125C7.08947 13.125 6.25 13.9645 6.25 15C6.25 16.0356 7.08947 16.875 8.125 16.875L25.1825 16.8438L20.8488 21.1776C20.1432 21.9355 20.1856 23.122 20.9436 23.8275C21.664 24.4981 22.7802 24.4976 23.5 23.8263L28.3488 18.9776C30.5455 16.7809 30.5455 13.2193 28.3488 11.0226L28.3488 11.0226L28.3525 11.0225Z" fill="white"/>
</svg>
