<svg width="80" height="80" viewBox="0 0 80 80" fill="none" xmlns="http://www.w3.org/2000/svg">
<g clip-path="url(#clip0_2_578)">
<path d="M63.3333 3.33337H16.6667C12.248 3.33867 8.01186 5.09631 4.8874 8.22077C1.76294 11.3452 0.00529286 15.5814 0 20L0 60C0.00529286 64.4187 1.76294 68.6549 4.8874 71.7793C8.01186 74.9038 12.248 76.6614 16.6667 76.6667H63.3333C67.752 76.6614 71.9881 74.9038 75.1126 71.7793C78.2371 68.6549 79.9947 64.4187 80 60V20C79.9947 15.5814 78.2371 11.3452 75.1126 8.22077C71.9881 5.09631 67.752 3.33867 63.3333 3.33337ZM16.6667 10H63.3333C65.3293 10.004 67.2784 10.6051 68.9298 11.7261C70.5813 12.847 71.8595 14.4365 72.6 16.29L47.0733 41.82C45.1948 43.6911 42.6514 44.7416 40 44.7416C37.3486 44.7416 34.8052 43.6911 32.9267 41.82L7.4 16.29C8.14049 14.4365 9.41871 12.847 11.0702 11.7261C12.7216 10.6051 14.6707 10.004 16.6667 10ZM63.3333 70H16.6667C14.0145 70 11.471 68.9465 9.5956 67.0711C7.72023 65.1958 6.66667 62.6522 6.66667 60V25L28.2133 46.5334C31.3421 49.6542 35.5809 51.4068 40 51.4068C44.4191 51.4068 48.6579 49.6542 51.7867 46.5334L73.3333 25V60C73.3333 62.6522 72.2798 65.1958 70.4044 67.0711C68.529 68.9465 65.9855 70 63.3333 70Z" fill="#023739"/>
</g>
<defs>
<clipPath id="clip0_2_578">
<rect width="80" height="80" fill="white"/>
</clipPath>
</defs>
</svg>
