<svg width="80" height="80" viewBox="0 0 80 80" fill="none" xmlns="http://www.w3.org/2000/svg">
<path d="M74.3867 5.61333C68.7733 0 59.7367 0 41.6667 0H38.3333C20.2633 0 11.2267 0 5.61333 5.61333C0 11.2267 0 20.2633 0 38.3333V41.6667C0 59.7367 0 68.77 5.61333 74.3867C11.2267 80.0033 20.2633 80 38.3333 80H41.6667C59.7367 80 68.77 80 74.3867 74.3867C80 68.7733 80 59.7367 80 41.6667V38.3333C80 20.2633 80 11.2267 74.3867 5.61333ZM65.01 56.6667H59.1767C56.9533 56.6667 56.3 54.8933 52.3433 50.9367C48.88 47.6 47.3967 47.1667 46.5333 47.1667C45.3567 47.1667 45.0067 47.5 45.0067 49.1667V54.3967C45.0067 55.83 44.55 56.6667 40.84 56.6667C34.66 56.6667 27.8667 52.9133 23.0433 45.9933C15.81 35.8567 13.8333 28.1933 13.8333 26.65C13.8333 25.7833 14.1667 25 15.8333 25H21.67C23.16 25 23.72 25.6533 24.28 27.2667C27.1333 35.5767 31.9467 42.84 33.9233 42.84C34.6633 42.84 35.0033 42.4967 35.0033 40.6167V32.0267C34.7867 28.0733 32.6833 27.7467 32.6833 26.34C32.6833 25.69 33.24 25 34.1667 25H43.3367C44.5733 25 45.0033 25.66 45.0033 27.1433V38.7C45.0033 39.9333 45.54 40.3667 45.91 40.3667C46.6533 40.3667 47.27 39.9333 48.63 38.5733C52.8333 33.8767 55.8 26.6467 55.8 26.6467C56.1733 25.78 56.8533 24.9967 58.34 24.9967H64.1733C65.9367 24.9967 66.31 25.9033 65.9367 27.14C65.1933 30.54 58.0867 40.55 58.0867 40.55C57.4667 41.54 57.22 42.0333 58.0867 43.1467C58.7067 44.0133 60.7433 45.7433 62.1033 47.35C64.61 50.17 66.5 52.5467 67.0267 54.1867C67.5133 55.8333 66.6767 56.6667 65.01 56.6667Z" fill="#023739"/>
</svg>
